<svg xmlns="http://www.w3.org/2000/svg" viewBox="0 0 201 44" width="201" height="30">
	<style>
		tspan { white-space:pre }
		.shp0 { fill: #29a361 } 
		.shp1 { fill: #248f55 } 
		.shp2 { fill: #34cb79 } 
		.shp3 { fill: #2fb86e } 
	</style>
	<path fill="#322153" d="M71.44 25.71Q71.44 23.47 72.11 21.81Q72.82 20.11 73.94 18.99Q75.06 17.87 76.5 17.3Q77.97 16.72 79.5 16.72Q83.09 16.72 85.17 18.93Q87.25 21.1 87.25 25.36Q87.25 25.78 87.22 26.29Q87.18 26.77 87.15 27.15L76.34 27.15Q76.5 28.62 77.71 29.49Q78.93 30.35 80.98 30.35Q82.29 30.35 83.54 30.13Q84.82 29.87 85.62 29.52L86.26 33.39Q85.87 33.58 85.23 33.78Q84.59 33.97 83.79 34.13Q83.02 34.26 82.13 34.35Q81.23 34.45 80.34 34.45Q78.06 34.45 76.37 33.78Q74.7 33.1 73.58 31.95Q72.5 30.77 71.95 29.17Q71.44 27.57 71.44 25.71ZM76.34 23.89L82.64 23.89Q82.61 23.28 82.42 22.7Q82.26 22.13 81.87 21.68Q81.52 21.23 80.94 20.94Q80.4 20.66 79.57 20.66Q78.77 20.66 78.19 20.94Q77.62 21.2 77.23 21.65Q76.85 22.1 76.62 22.7Q76.43 23.28 76.34 23.89ZM95.06 15.92L95.06 29.94Q95.41 29.97 95.86 30Q96.34 30 96.98 30Q100.72 30 102.51 28.11Q104.34 26.22 104.34 22.9Q104.34 19.41 102.61 17.62Q100.88 15.82 97.14 15.82Q96.62 15.82 96.08 15.86Q95.54 15.86 95.06 15.92ZM109.49 22.9Q109.49 25.78 108.59 27.92Q107.7 30.06 106.03 31.47Q104.4 32.88 102.03 33.58Q99.66 34.29 96.72 34.29Q95.38 34.29 93.58 34.19Q91.79 34.06 90.06 33.71L90.06 12.11Q91.79 11.79 93.65 11.7Q95.54 11.57 96.88 11.57Q99.73 11.57 102.03 12.21Q104.37 12.85 106.03 14.22Q107.7 15.6 108.59 17.74Q109.49 19.89 109.49 22.9ZM116.91 17.17L116.91 34L112.14 34L112.14 17.17L116.91 17.17ZM117.36 12.3Q117.36 13.62 116.5 14.38Q115.66 15.12 114.51 15.12Q113.36 15.12 112.5 14.38Q111.66 13.62 111.66 12.3Q111.66 10.99 112.5 10.26Q113.36 9.49 114.51 9.49Q115.66 9.49 116.5 10.26Q117.36 10.99 117.36 12.3ZM125.04 30.58Q126.35 30.58 126.9 30.32Q127.44 30.06 127.44 29.33Q127.44 28.75 126.74 28.34Q126.03 27.89 124.59 27.34Q123.47 26.93 122.54 26.48Q121.65 26.03 121.01 25.42Q120.37 24.78 120.02 23.92Q119.66 23.06 119.66 21.84Q119.66 19.47 121.42 18.1Q123.18 16.72 126.26 16.72Q127.79 16.72 129.2 17.01Q130.61 17.26 131.44 17.58L130.61 21.3Q129.78 21.01 128.78 20.78Q127.82 20.56 126.61 20.56Q124.37 20.56 124.37 21.81Q124.37 22.1 124.46 22.32Q124.56 22.54 124.85 22.77Q125.14 22.96 125.62 23.22Q126.13 23.44 126.9 23.73Q128.46 24.3 129.49 24.88Q130.51 25.42 131.09 26.1Q131.7 26.74 131.92 27.54Q132.18 28.34 132.18 29.39Q132.18 31.89 130.29 33.17Q128.43 34.45 125.01 34.45Q122.77 34.45 121.26 34.06Q119.79 33.68 119.22 33.42L120.02 29.55Q121.23 30.03 122.51 30.32Q123.79 30.58 125.04 30.58ZM145.33 25.71Q145.33 23.5 144.34 22.19Q143.34 20.85 141.39 20.85Q140.75 20.85 140.21 20.91Q139.66 20.94 139.31 21.01L139.31 29.62Q139.76 29.9 140.46 30.1Q141.2 30.29 141.94 30.29Q145.33 30.29 145.33 25.71ZM150.19 25.58Q150.19 27.54 149.71 29.14Q149.23 30.74 148.3 31.89Q147.38 33.04 146 33.68Q144.62 34.32 142.83 34.32Q141.84 34.32 140.98 34.13Q140.11 33.94 139.31 33.58L139.31 39.92L134.54 39.92L134.54 17.74Q135.18 17.55 136.02 17.39Q136.85 17.2 137.74 17.07Q138.67 16.94 139.6 16.88Q140.56 16.78 141.42 16.78Q143.5 16.78 145.14 17.42Q146.77 18.03 147.89 19.18Q149.01 20.3 149.58 21.94Q150.19 23.57 150.19 25.58ZM168.43 25.55Q168.43 27.54 167.86 29.2Q167.28 30.83 166.19 32.02Q165.1 33.17 163.57 33.81Q162.06 34.45 160.18 34.45Q158.32 34.45 156.78 33.81Q155.28 33.17 154.19 32.02Q153.1 30.83 152.5 29.2Q151.89 27.54 151.89 25.55Q151.89 23.57 152.5 21.94Q153.14 20.3 154.22 19.15Q155.34 18 156.85 17.36Q158.38 16.72 160.18 16.72Q162 16.72 163.5 17.36Q165.04 18 166.13 19.15Q167.22 20.3 167.82 21.94Q168.43 23.57 168.43 25.55ZM163.57 25.55Q163.57 23.34 162.67 22.1Q161.81 20.82 160.18 20.82Q158.54 20.82 157.65 22.1Q156.75 23.34 156.75 25.55Q156.75 27.76 157.65 29.07Q158.54 30.35 160.18 30.35Q161.81 30.35 162.67 29.07Q163.57 27.76 163.57 25.55ZM175.76 30.58Q177.07 30.58 177.62 30.32Q178.16 30.06 178.16 29.33Q178.16 28.75 177.46 28.34Q176.75 27.89 175.31 27.34Q174.19 26.93 173.26 26.48Q172.37 26.03 171.73 25.42Q171.09 24.78 170.74 23.92Q170.38 23.06 170.38 21.84Q170.38 19.47 172.14 18.1Q173.9 16.72 176.98 16.72Q178.51 16.72 179.92 17.01Q181.33 17.26 182.16 17.58L181.33 21.3Q180.5 21.01 179.5 20.78Q178.54 20.56 177.33 20.56Q175.09 20.56 175.09 21.81Q175.09 22.1 175.18 22.32Q175.28 22.54 175.57 22.77Q175.86 22.96 176.34 23.22Q176.85 23.44 177.62 23.73Q179.18 24.3 180.21 24.88Q181.23 25.42 181.81 26.1Q182.42 26.74 182.64 27.54Q182.9 28.34 182.9 29.39Q182.9 31.89 181.01 33.17Q179.15 34.45 175.73 34.45Q173.49 34.45 171.98 34.06Q170.51 33.68 169.94 33.42L170.74 29.55Q171.95 30.03 173.23 30.32Q174.51 30.58 175.76 30.58ZM184.46 25.71Q184.46 23.47 185.14 21.81Q185.84 20.11 186.96 18.99Q188.08 17.87 189.52 17.3Q190.99 16.72 192.53 16.72Q196.11 16.72 198.19 18.93Q200.27 21.1 200.27 25.36Q200.27 25.78 200.24 26.29Q200.21 26.77 200.18 27.15L189.36 27.15Q189.52 28.62 190.74 29.49Q191.95 30.35 194 30.35Q195.31 30.35 196.56 30.13Q197.84 29.87 198.64 29.52L199.28 33.39Q198.9 33.58 198.26 33.78Q197.62 33.97 196.82 34.13Q196.05 34.26 195.15 34.35Q194.26 34.45 193.36 34.45Q191.09 34.45 189.39 33.78Q187.73 33.1 186.61 31.95Q185.52 30.77 184.98 29.17Q184.46 27.57 184.46 25.71ZM189.36 23.89L195.66 23.89Q195.63 23.28 195.44 22.7Q195.28 22.13 194.9 21.68Q194.54 21.23 193.97 20.94Q193.42 20.66 192.59 20.66Q191.79 20.66 191.22 20.94Q190.64 21.2 190.26 21.65Q189.87 22.1 189.65 22.7Q189.46 23.28 189.36 23.89Z" />
	<path class="shp0" d="M14.64 1.85L10.07 10.59C9.77 11.15 9.97 11.86 10.5 12.17L17.67 16.39C18.21 16.71 18.91 16.52 19.22 15.95L27.97 0L17.64 0C16.39 0 15.24 0.71 14.64 1.85Z" />
	<path class="shp1" d="M27.97 0L19.22 15.95C18.91 16.52 18.21 16.71 17.67 16.39L15.8 15.29C16.25 15.37 16.73 15.15 16.97 14.71L25.05 0L27.97 0Z" />
	<path class="shp2" d="M37.55 8.46L34.4 1.95C33.82 0.75 32.64 0 31.35 0L22.23 0L29.23 12.32C29.21 12.33 29.19 12.34 29.16 12.35C28.72 12.55 28.74 13.21 29.19 13.39L35.24 15.8C35.52 15.91 35.84 15.76 35.94 15.47L38.28 9.18C38.45 8.71 37.99 8.26 37.55 8.46Z" />
	<path class="shp3" d="M38.28 9.18L35.94 15.47C35.84 15.76 35.52 15.91 35.24 15.8L33.41 15.07L35.59 9.18C35.72 8.85 35.52 8.52 35.23 8.43C34.96 8.35 34.73 8.17 34.61 7.91L31.72 1.95C31.14 0.75 29.96 0 28.67 0L31.35 0C32.64 0 33.82 0.75 34.4 1.95L37.55 8.46C38 8.27 38.45 8.71 38.28 9.18Z" />
	<path class="shp0" d="M31.46 33.56C31.37 33.2 30.92 33.04 30.65 33.33L25.92 38.23C25.73 38.42 25.73 38.74 25.92 38.93L30.67 43.85C30.94 44.14 31.39 43.98 31.48 43.63L38.45 43.63C39.74 43.63 40.92 42.88 41.5 41.69L45.48 33.56L31.46 33.56L31.46 33.56Z" />
	<path class="shp1" d="M37.35 33.56L39.61 37.11C40.13 37.91 40.18 38.94 39.76 39.79L38.83 41.69C38.25 42.88 37.07 43.63 35.79 43.63L38.45 43.63C39.74 43.63 40.92 42.88 41.5 41.69L45.48 33.56L37.35 33.56L37.35 33.56Z" />
	<path class="shp0" d="M21.94 42.69L21.94 34.04C21.94 33.38 21.43 32.86 20.8 32.86L2.07 32.86L6.89 42.03C7.49 43.16 8.63 43.87 9.88 43.87L20.8 43.87C21.43 43.87 21.94 43.34 21.94 42.69Z" />
	<path class="shp1" d="M10.01 32.86L5.85 40.06L2.07 32.86L10.01 32.86Z" />
	<path class="shp1" d="M21.93 34.04L21.93 42.69C21.93 43.34 21.43 43.87 20.8 43.87L17.81 43.87C18.44 43.87 18.95 43.34 18.95 42.69L18.95 34.04C18.95 33.39 18.44 32.86 17.81 32.86L20.8 32.86C21.43 32.86 21.93 33.39 21.93 34.04Z" />
	<path class="shp2" d="M12.78 25.21L11.94 18.65C11.9 18.32 11.61 18.09 11.3 18.14L4.95 19.01C4.47 19.08 4.29 19.68 4.62 20.02L0.61 26.01C-0.13 27.11 -0.2 28.54 0.42 29.71L4.78 38.02L11.87 25.75C11.87 25.75 11.87 25.75 11.87 25.76C12.28 26.07 12.85 25.73 12.78 25.21Z" />
	<path class="shp3" d="M11.87 25.76C11.87 25.75 11.87 25.75 11.87 25.75L4.78 38.02L3.32 35.24L9.09 25.26L9.25 24.98C9.34 24.83 9.51 24.76 9.68 24.8C9.68 24.8 9.68 24.8 9.68 24.8C10.03 24.86 10.4 24.56 10.34 24.14L9.6 18.37L11.3 18.14C11.61 18.09 11.9 18.32 11.94 18.65L12.79 25.21C12.85 25.73 12.28 26.07 11.87 25.76Z" />
	<path class="shp2" d="M47.4 25.56L41.91 17.32C41.57 16.81 40.92 16.66 40.41 16.97L33.26 21.24C32.69 21.58 32.52 22.35 32.88 22.91L42.95 38.72L47.63 29.16C48.2 28.01 48.11 26.62 47.4 25.56Z" />
	<path class="shp3" d="M47.63 29.16L42.95 38.71L41.39 36.25L44.86 29.16C45.42 28.01 45.33 26.62 44.62 25.56L39.33 17.61L40.41 16.97C40.92 16.66 41.57 16.81 41.91 17.32L47.4 25.56C48.11 26.62 48.2 28.01 47.63 29.16Z" />
</svg>